<mxfile host="app.diagrams.net" modified="2023-12-18T14:16:19.417Z" agent="Mozilla/5.0 (Windows NT 10.0; Win64; x64) AppleWebKit/537.36 (KHTML, like Gecko) Chrome/120.0.0.0 Safari/537.36" version="22.1.11" etag="5ScKP2f6J47A4CpBjya0" type="github">
  <diagram name="Puslapis-1" id="gIWTnqLHT1SBpInhs8rQ">
    <mxGraphModel>
      <root>
        <mxCell id="0" />
        <mxCell id="1" parent="0" />
      </root>
    </mxGraphModel>
  </diagram>
</mxfile>
